<svg width="1636" height="648" viewBox="0 0 1636 648" fill="none" xmlns="http://www.w3.org/2000/svg">
<path d="M279.888 564C354.505 564 414.994 529.075 414.994 485.992C414.994 442.909 354.505 407.984 279.888 407.984C205.271 407.984 144.782 442.909 144.782 485.992C144.782 529.075 205.271 564 279.888 564Z" fill="#4FAEDB"/>
<path d="M135.363 475.52C134.904 467.456 135.072 458.91 135.128 450.757C135.128 448.942 135.128 447.162 135.128 445.414C136.36 424.997 150.472 404.792 177.464 389.19C234.013 356.531 325.707 356.531 382.256 389.19C409.573 404.994 423.696 425.512 424.626 446.198V446.322C424.626 447.811 424.626 449.267 424.626 450.69C424.626 453.803 424.626 456.782 424.626 459.728C435.176 575.939 155.299 588.64 135.363 475.52Z" fill="#63BAE6"/>
<path d="M424.659 446.21V446.333C424.659 447.822 424.659 449.278 424.659 450.701C423.696 471.286 409.55 491.715 382.323 507.44C325.774 540.099 234.08 540.099 177.531 507.44C150.315 491.76 136.203 471.32 135.162 450.768C135.055 448.989 135.055 447.205 135.162 445.426C136.394 425.008 150.506 404.803 177.498 389.202C234.046 356.542 325.741 356.542 382.29 389.202C409.606 404.96 423.752 425.523 424.659 446.21Z" fill="#7ECFF7"/>
<path d="M146.205 459.627C145.243 454.289 144.741 448.878 144.704 443.454C144.558 437.194 144.704 388.574 144.838 382.392C144.906 377.834 144.973 373.432 144.838 369.378C125.44 248.328 404.947 239.2 414.949 351.39C414.949 362.322 414.949 372.581 414.949 382.358V392.326C415.397 395.686 415.576 441.136 415.52 444.362C413.661 544.355 177.15 557.078 146.205 459.627Z" fill="#63BAE6"/>
<path d="M414.949 382.358C370.474 452.179 190.478 455.864 144.838 382.358C144.906 377.8 144.973 373.398 144.838 369.344C125.44 248.328 404.947 239.2 414.949 351.39C414.982 362.322 414.949 372.581 414.949 382.358Z" fill="#4FAEDB"/>
<path d="M135.363 350.27C134.904 342.43 135.072 334.12 135.128 326.123C135.128 324.309 135.128 322.494 135.128 320.747C136.394 300.386 150.506 280.226 177.464 264.747C234.013 232.088 325.707 232.088 382.256 264.747C409.573 280.506 423.696 301.024 424.626 321.677V321.845C424.626 323.334 424.626 324.79 424.626 326.246C424.626 329.091 424.626 331.846 424.626 334.557C435.176 450.667 155.299 463.424 135.363 350.27Z" fill="#63BAE6"/>
<path d="M424.659 321.587V321.755C424.659 323.245 424.659 324.701 424.659 326.157C423.662 346.742 409.55 367.16 382.323 382.896C325.774 415.555 234.08 415.555 177.531 382.896C150.282 367.16 136.17 346.742 135.162 326.123C135.055 324.333 135.055 322.538 135.162 320.747V320.747C136.427 300.386 150.539 280.226 177.498 264.747C234.046 232.088 325.741 232.088 382.29 264.747C409.606 280.416 423.718 300.934 424.659 321.587Z" fill="#7ECFF7"/>
<path d="M146.205 331.141C144.166 320.938 144.648 307.901 144.838 295.984C144.906 291.426 144.973 287.024 144.838 282.97C125.44 161.92 404.947 152.792 414.949 264.96C414.949 275.891 414.949 286.162 414.949 295.928V305.896C429.128 414.939 178.147 431.739 146.205 331.141Z" fill="#63BAE6"/>
<path d="M414.949 295.906C370.474 365.726 190.478 369.411 144.838 295.906C144.906 291.347 144.973 286.946 144.838 282.891C125.44 161.92 404.947 152.747 414.949 264.96C414.982 275.869 414.949 286.128 414.949 295.906Z" fill="#4FAEDB"/>
<path d="M135.363 263.84C134.904 256 135.072 247.69 135.128 239.693C135.128 237.878 135.128 236.064 135.128 234.317C136.394 213.922 150.506 193.795 177.464 178.227C234.013 145.568 325.707 145.568 382.256 178.227C409.573 193.986 423.696 214.504 424.626 235.19V235.358C424.626 236.848 424.626 238.304 424.626 239.76C424.626 242.605 424.626 245.36 424.626 248.07C435.176 364.214 155.299 376.96 135.363 263.84Z" fill="#63BAE6"/>
<path d="M424.659 235.134V235.302C424.659 236.792 424.659 238.248 424.659 239.704C423.662 260.29 409.55 280.674 382.323 296.41C325.774 329.069 234.08 329.069 177.531 296.41C150.282 280.674 136.17 260.256 135.162 239.67C135.055 237.88 135.055 236.085 135.162 234.294V234.294C136.427 213.899 150.539 193.773 177.498 178.205C234.046 145.546 325.741 145.546 382.29 178.205C409.606 193.93 423.718 214.448 424.659 235.134Z" fill="#7ECFF7"/>
<path d="M375.435 182.08C300.496 140.304 283.898 120.838 211.915 166.714C75.7456 230.688 171.405 313.803 272.194 315.136C361.189 322.976 478.24 249.022 375.435 182.08Z" fill="#6BC2ED"/>
<path d="M331.206 169.334C331.206 169.861 331.206 170.387 331.206 170.902C330.848 178.205 325.853 185.462 316.198 191.062C296.139 202.643 263.626 202.643 243.578 191.062C233.912 185.462 228.906 178.238 228.547 170.902C228.508 170.268 228.508 169.632 228.547 168.998V168.998C228.995 161.763 234.002 154.618 243.566 149.107C263.614 137.515 296.128 137.515 316.187 149.107C325.92 154.73 330.882 161.998 331.206 169.334Z" fill="#7ECFF7"/>
<path d="M319.312 162.637C319.312 163.051 319.312 163.443 319.312 163.835C319.032 169.435 315.19 175.035 307.776 179.291C292.376 188.184 267.389 188.184 251.989 179.291C244.563 175.002 240.722 169.435 240.442 163.835C240.414 163.347 240.414 162.857 240.442 162.368V162.368C240.789 156.768 244.63 151.325 251.978 147.091C267.378 138.131 292.365 138.131 307.765 147.091C315.202 151.414 319.054 157.003 319.312 162.637Z" fill="#63BAE6"/>
<path d="M313.13 120.626C308.246 93.9696 242.077 95.2576 246.624 126.875C246.624 130.022 246.624 133.819 246.624 138.21C247.554 148.547 244.485 159.322 248.338 169.368C262.282 190.95 314.496 185.048 313.118 160.542C313.118 147.685 313.096 134.424 313.13 120.626Z" fill="#4FAEDB"/>
<path d="M313.13 120.581C313.13 120.917 313.13 121.253 313.13 121.589C312.894 126.315 309.658 130.997 303.408 134.614C290.416 142.118 269.349 142.118 256.368 134.614C250.107 130.997 246.87 126.304 246.635 121.578C246.607 121.167 246.607 120.756 246.635 120.346V120.346C246.926 115.664 250.163 111.038 256.357 107.466C269.349 99.9616 290.416 99.9616 303.397 107.466C309.669 111.117 312.906 115.832 313.13 120.581Z" fill="#63BAE6"/>
<path d="M323.03 84.3936C316.702 49.8416 230.899 51.4992 236.79 92.5024C236.79 96.5792 236.79 101.462 236.79 107.208C237.989 120.592 234.013 134.57 239.03 147.595C257.107 175.595 324.811 167.968 323.03 136.149C323.008 119.494 322.997 102.291 323.03 84.3936Z" fill="#2490D4"/>
<path d="M306.219 89.2432C303.979 81.6608 300.171 74.896 293.664 70.0128C281.501 60.8848 270.379 58.432 255.976 64.1552C242.637 69.4528 236.757 78.536 236.802 92.48C236.802 96.5568 236.802 101.44 236.802 107.186C238 120.57 234.024 134.547 239.042 147.573C241.786 154.718 252.482 159.579 259.09 161.763C267.478 164.53 276.416 165.56 285.062 163.634C300.362 160.206 307.899 143.003 308.582 128.701C309.12 116.616 309.882 101.821 306.219 89.2432Z" fill="#2698E0"/>
<path d="M323.03 84.3488C323.03 84.7968 323.03 85.2336 323.03 85.6592C322.728 91.7968 318.55 97.8672 310.419 102.549C293.619 112.282 266.269 112.282 249.424 102.549C241.304 97.8672 237.104 91.7856 236.802 85.648C236.762 85.1186 236.762 84.587 236.802 84.0576C237.171 77.976 241.382 71.984 249.413 67.3472C266.213 57.6144 293.563 57.6144 310.408 67.3472C318.539 72.0736 322.75 78.1888 323.03 84.3488Z" fill="#279CE6"/>
<path d="M298.782 84.7184V85.3008C298.682 87.6304 297.293 89.9376 294.605 91.808C294.171 92.1261 293.718 92.4178 293.25 92.6816C285.869 96.96 273.93 96.96 266.56 92.6816C266.067 92.3904 265.619 92.0992 265.194 91.808C262.539 89.904 261.15 87.6304 261.05 85.3008C261.016 85.0668 261.016 84.8292 261.05 84.5952C261.218 81.9408 263.066 79.32 266.56 77.2816C273.941 73.0368 285.88 73.0368 293.261 77.2816C296.8 79.3536 298.648 82.008 298.782 84.7184Z" fill="#2490D4"/>
<path d="M294.56 91.808C294.126 92.126 293.674 92.4177 293.205 92.6816C285.869 96.96 273.93 96.96 266.56 92.6816C266.067 92.3904 265.619 92.0992 265.194 91.808C265.619 91.5168 266.067 91.2256 266.56 90.9344C273.941 86.7008 285.88 86.7008 293.261 90.9344C293.731 91.2256 294.19 91.5168 294.56 91.808Z" fill="#1E79B3"/>
<path d="M237.037 87.7537C241.147 95.9297 261.386 111.05 288.389 109.403C288.389 109.403 244.653 118.24 237.037 87.7537Z" fill="#29A3F0"/>
<path d="M283.539 74.2912C293.048 73.8208 302.579 79.5664 298.099 87.7312C298.155 87.7536 300.339 76.9904 283.539 74.2912Z" fill="#29A3F0"/>
<path d="M244.72 347.28C251.524 347.28 257.04 341.764 257.04 334.96C257.04 328.156 251.524 322.64 244.72 322.64C237.916 322.64 232.4 328.156 232.4 334.96C232.4 341.764 237.916 347.28 244.72 347.28Z" fill="black" stroke="black" stroke-miterlimit="10"/>
<path d="M315.28 347.28C322.084 347.28 327.6 341.764 327.6 334.96C327.6 328.156 322.084 322.64 315.28 322.64C308.476 322.64 302.96 328.156 302.96 334.96C302.96 341.764 308.476 347.28 315.28 347.28Z" fill="black" stroke="black" stroke-miterlimit="10"/>
<path d="M254.094 414.794C254.094 415.466 254.038 416.138 254.094 416.821C254.318 431.526 265.787 443.275 279.709 443.051C293.63 442.827 304.707 430.731 304.483 416.026C304.483 415.342 304.427 414.67 304.36 414.01L254.094 414.794Z" fill="black" stroke="black" stroke-miterlimit="10"/>
<path d="M604.7 264.25C620.8 264.25 635.383 268.45 648.45 276.85C661.517 285.017 671.783 296.45 679.25 311.15C686.95 325.85 690.8 342.533 690.8 361.2C690.8 379.867 687.067 396.667 679.6 411.6C672.133 426.3 661.867 437.85 648.8 446.25C635.967 454.417 621.733 458.5 606.1 458.5C594.9 458.5 584.283 456.283 574.25 451.85C564.45 447.183 556.283 441.583 549.75 435.05V437.15C549.75 443.217 547.767 448.35 543.8 452.55C539.833 456.517 534.817 458.5 528.75 458.5C522.683 458.5 517.667 456.517 513.7 452.55C509.733 448.583 507.75 443.45 507.75 437.15V217.35C507.75 211.283 509.733 206.267 513.7 202.3C517.667 198.1 522.683 196 528.75 196C534.817 196 539.833 198.1 543.8 202.3C547.767 206.267 549.75 211.283 549.75 217.35V290.5C555.35 283.5 563.167 277.433 573.2 272.3C583.233 266.933 593.733 264.25 604.7 264.25ZM599.45 420C614.383 420 626.633 414.4 636.2 403.2C645.767 392 650.55 378 650.55 361.2C650.55 344.4 645.767 330.517 636.2 319.55C626.867 308.35 614.617 302.75 599.45 302.75C584.283 302.75 571.917 308.35 562.35 319.55C552.783 330.517 548 344.4 548 361.2C548 378 552.783 392 562.35 403.2C571.917 414.4 584.283 420 599.45 420ZM859.866 264.25C865.933 264.25 870.95 266.233 874.916 270.2C878.883 274.167 880.866 279.3 880.866 285.6V433.65C880.866 439.717 878.883 444.85 874.916 449.05C870.95 453.017 865.933 455 859.866 455C853.8 455 848.783 453.017 844.816 449.05C841.083 445.083 839.1 440.067 838.866 434C833.033 440.767 825.1 446.6 815.066 451.5C805.266 456.167 794.883 458.5 783.916 458.5C767.816 458.5 753.233 454.417 740.166 446.25C727.1 437.85 716.716 426.3 709.016 411.6C701.55 396.9 697.816 380.217 697.816 361.55C697.816 342.883 701.55 326.2 709.016 311.5C716.483 296.567 726.633 285.017 739.466 276.85C752.533 268.45 766.883 264.25 782.516 264.25C793.716 264.25 804.216 266.35 814.016 270.55C823.816 274.517 832.1 279.65 838.866 285.95V285.6C838.866 279.533 840.85 274.517 844.816 270.55C848.783 266.35 853.8 264.25 859.866 264.25ZM789.166 420C804.333 420 816.7 414.517 826.266 403.55C835.833 392.35 840.616 378.35 840.616 361.55C840.616 344.75 835.833 330.75 826.266 319.55C816.7 308.35 804.333 302.75 789.166 302.75C774.233 302.75 761.983 308.35 752.416 319.55C742.85 330.75 738.066 344.75 738.066 361.55C738.066 378.35 742.733 392.35 752.066 403.55C761.633 414.517 774 420 789.166 420ZM1008.98 264.25C1032.78 264.25 1049.23 271.367 1058.33 285.6C1067.43 299.6 1071.98 319.083 1071.98 344.05V433.65C1071.98 439.717 1070 444.85 1066.03 449.05C1062.07 453.017 1057.05 455 1050.98 455C1044.92 455 1039.9 453.017 1035.93 449.05C1031.97 444.85 1029.98 439.717 1029.98 433.65V344.05C1029.98 331.217 1027.3 321.183 1021.93 313.95C1016.57 306.483 1007.35 302.75 994.283 302.75C980.749 302.75 970.133 306.717 962.433 314.65C954.733 322.35 950.883 332.15 950.883 344.05V433.65C950.883 439.717 948.899 444.85 944.933 449.05C940.966 453.017 935.949 455 929.883 455C923.816 455 918.799 453.017 914.833 449.05C910.866 444.85 908.883 439.717 908.883 433.65V289.1C908.883 283.033 910.866 278.017 914.833 274.05C918.799 269.85 923.816 267.75 929.883 267.75C935.949 267.75 940.966 269.85 944.933 274.05C948.899 278.017 950.883 283.033 950.883 289.1V295.05C957.183 286.65 965.349 279.417 975.383 273.35C985.649 267.283 996.849 264.25 1008.98 264.25ZM1190.18 415.45C1193.45 415.45 1196.36 417.083 1198.93 420.35C1201.73 423.383 1203.13 427.467 1203.13 432.6C1203.13 438.9 1199.63 444.267 1192.63 448.7C1185.86 452.9 1178.16 455 1169.53 455C1155.06 455 1142.81 451.967 1132.78 445.9C1122.98 439.6 1118.08 426.417 1118.08 406.35V309.75H1101.98C1096.38 309.75 1091.71 307.883 1087.98 304.15C1084.25 300.417 1082.38 295.75 1082.38 290.15C1082.38 284.783 1084.25 280.35 1087.98 276.85C1091.71 273.117 1096.38 271.25 1101.98 271.25H1118.08V248.85C1118.08 242.783 1120.06 237.767 1124.03 233.8C1128.23 229.6 1133.36 227.5 1139.43 227.5C1145.26 227.5 1150.16 229.6 1154.13 233.8C1158.1 237.767 1160.08 242.783 1160.08 248.85V271.25H1184.93C1190.53 271.25 1195.2 273.117 1198.93 276.85C1202.66 280.583 1204.53 285.25 1204.53 290.85C1204.53 296.217 1202.66 300.767 1198.93 304.5C1195.2 308 1190.53 309.75 1184.93 309.75H1160.08V404.6C1160.08 409.5 1161.36 413.117 1163.93 415.45C1166.5 417.55 1170 418.6 1174.43 418.6C1176.3 418.6 1178.86 418.133 1182.13 417.2C1184.93 416.033 1187.61 415.45 1190.18 415.45ZM1391.88 357C1391.65 362.6 1389.43 367.15 1385.23 370.65C1381.03 374.15 1376.13 375.9 1370.53 375.9H1255.03C1257.83 389.667 1264.25 400.517 1274.28 408.45C1284.32 416.15 1295.63 420 1308.23 420C1317.8 420 1325.27 419.183 1330.63 417.55C1336 415.683 1340.2 413.817 1343.23 411.95C1346.5 409.85 1348.72 408.45 1349.88 407.75C1354.08 405.65 1358.05 404.6 1361.78 404.6C1366.68 404.6 1370.88 406.35 1374.38 409.85C1377.88 413.35 1379.63 417.433 1379.63 422.1C1379.63 428.4 1376.37 434.117 1369.83 439.25C1363.3 444.617 1354.55 449.167 1343.58 452.9C1332.62 456.633 1321.53 458.5 1310.33 458.5C1290.73 458.5 1273.58 454.417 1258.88 446.25C1244.42 438.083 1233.22 426.883 1225.28 412.65C1217.35 398.183 1213.38 381.967 1213.38 364C1213.38 343.933 1217.58 326.317 1225.98 311.15C1234.38 295.983 1245.47 284.433 1259.23 276.5C1273 268.333 1287.7 264.25 1303.33 264.25C1318.73 264.25 1333.2 268.45 1346.73 276.85C1360.5 285.25 1371.47 296.567 1379.63 310.8C1387.8 325.033 1391.88 340.433 1391.88 357ZM1303.33 302.75C1276.27 302.75 1260.28 315.467 1255.38 340.9H1347.08V338.45C1346.15 328.65 1341.37 320.25 1332.73 313.25C1324.1 306.25 1314.3 302.75 1303.33 302.75ZM1506.71 264.25C1513.71 264.25 1519.54 266.233 1524.21 270.2C1529.11 274.167 1531.56 278.833 1531.56 284.2C1531.56 291.433 1529.69 296.917 1525.96 300.65C1522.23 304.15 1517.79 305.9 1512.66 305.9C1509.16 305.9 1505.19 305.083 1500.76 303.45C1500.06 303.217 1498.43 302.75 1495.86 302.05C1493.53 301.35 1490.96 301 1488.16 301C1482.09 301 1476.26 302.867 1470.66 306.6C1465.06 310.333 1460.39 316.05 1456.66 323.75C1453.16 331.217 1451.41 340.2 1451.41 350.7V433.65C1451.41 439.717 1449.43 444.85 1445.46 449.05C1441.49 453.017 1436.48 455 1430.41 455C1424.34 455 1419.33 453.017 1415.36 449.05C1411.39 444.85 1409.41 439.717 1409.41 433.65V289.1C1409.41 283.033 1411.39 278.017 1415.36 274.05C1419.33 269.85 1424.34 267.75 1430.41 267.75C1436.48 267.75 1441.49 269.85 1445.46 274.05C1449.43 278.017 1451.41 283.033 1451.41 289.1V293.65C1456.78 284.083 1464.48 276.85 1474.51 271.95C1484.54 266.817 1495.28 264.25 1506.71 264.25Z" fill="#282E4E"/>
</svg>