<svg width="40" height="20" viewBox="0 0 40 20" fill="none" xmlns="http://www.w3.org/2000/svg">
<rect width="40" height="20" rx="5" fill="#FD4140" fill-opacity="0.08"/>
<g clip-path="url(#clip0)">
<path d="M26.375 14.0833C26.375 14.3928 26.2433 14.6895 26.0089 14.9083C25.7745 15.1271 25.4565 15.25 25.125 15.25H13.875C13.5435 15.25 13.2255 15.1271 12.9911 14.9083C12.7567 14.6895 12.625 14.3928 12.625 14.0833V7.66667C12.625 7.35725 12.7567 7.0605 12.9911 6.84171C13.2255 6.62292 13.5435 6.5 13.875 6.5H16.375L17.625 4.75H21.375L22.625 6.5H25.125C25.4565 6.5 25.7745 6.62292 26.0089 6.84171C26.2433 7.0605 26.375 7.35725 26.375 7.66667V14.0833Z" stroke="#FD4140" stroke-width="1.5" stroke-linecap="round" stroke-linejoin="round"/>
<path d="M19.5 12.9167C20.8807 12.9167 22 11.872 22 10.5833C22 9.29467 20.8807 8.25 19.5 8.25C18.1193 8.25 17 9.29467 17 10.5833C17 11.872 18.1193 12.9167 19.5 12.9167Z" stroke="#FD4140" stroke-width="1.5" stroke-linecap="round" stroke-linejoin="round"/>
</g>
<defs>
<clipPath id="clip0">
<rect width="15" height="14" fill="white" transform="translate(12 3)"/>
</clipPath>
</defs>
</svg>