<svg width="300" height="300" viewBox="0 0 300 300" fill="none" xmlns="http://www.w3.org/2000/svg">
<g clip-path="url(#clip0)">
<path d="M140.405 128.223C143.293 124.781 152.884 128.067 161.808 135.556C170.733 143.044 175.634 151.919 172.746 155.36C169.859 158.802 160.268 155.516 151.344 148.027C142.419 140.539 137.518 131.664 140.405 128.223Z" fill="#E49922"/>
<path d="M139.606 128.685C137.95 128.685 122.952 170.031 130.224 171.179C140.71 172.834 180.811 155.981 171.291 154.601C161.771 153.222 139.606 135.445 139.606 128.685Z" fill="#FAB64A"/>
<path d="M160.113 70.0539C160.045 69.9855 159.977 69.916 159.908 69.8475" stroke="#FD5E54" stroke-width="3.31122" stroke-linecap="round"/>
<path d="M239.155 86.1895C250.736 83.5317 261.478 84.5857 269.73 91.9223" stroke="#FDC457" stroke-width="3.31122" stroke-linecap="round"/>
<path d="M225.196 138.19C225.911 139.067 226.593 140.017 227.236 141.039" stroke="#5EA0DA" stroke-width="3.31122" stroke-linecap="round"/>
<path d="M72.3121 208.268L70.5909 197.047L79.9382 195.613L81.6594 206.834L72.3121 208.268Z" fill="#E49922"/>
<path d="M117.149 194.03L115.492 183.23L122.101 182.216L123.758 193.017L117.149 194.03Z" fill="#227DE4"/>
<path d="M189.164 184.295L187.46 173.185L196.306 171.828L198.01 182.938L189.164 184.295Z" fill="#E49922"/>
<path d="M244.216 166.217L242.573 155.503L256.094 153.429L257.738 164.142L244.216 166.217Z" fill="#227DE4"/>
<path d="M108.001 201.017L104.961 185.81L93.6745 188.066L96.7139 203.273L108.001 201.017Z" fill="#FE5F55"/>
<path d="M174.608 177.369L172.351 166.077L161.048 168.336L163.305 179.628L174.608 177.369Z" fill="#227DE4"/>
<path d="M224.463 185.015L230.823 175.278L223.287 170.355L216.927 180.093L224.463 185.015Z" fill="#E49922"/>
<path d="M180.46 168.348L186.821 158.609L180.29 154.344L173.93 164.083L180.46 168.348Z" fill="#227DE4"/>
<path d="M108.58 153.408L114.536 144.289L105.95 138.681L99.9937 147.8L108.58 153.408Z" fill="#E49922"/>
<path d="M52.285 133.118L58.7381 123.237L47.405 115.835L40.9519 125.716L52.285 133.118Z" fill="#227DE4"/>
<path d="M189.084 158.039L198.271 145.654L209.241 153.79L200.054 166.176L189.084 158.039Z" fill="#FE5F55"/>
<path d="M124.629 130.949L130.691 122.775L139.717 129.469L133.654 137.643L124.629 130.949Z" fill="#227DE4"/>
<path d="M80.7023 143.38L68.9867 139.991L71.5478 131.138L83.2634 134.528L80.7023 143.38Z" fill="#E49922"/>
<path d="M124.099 122.723L112.635 119.407L115.151 110.71L126.615 114.027L124.099 122.723Z" fill="#227DE4"/>
<path d="M195.539 99.9016L186.509 97.2888L189.93 85.463L198.961 88.0758L195.539 99.9016Z" fill="#E49922"/>
<path d="M255.225 72.5769L242.125 68.7867L245.085 58.5552L258.185 62.3455L255.225 72.5769Z" fill="#227DE4"/>
<path d="M109.146 85.1932L95.6158 82.4813L92.5294 97.8795L106.059 100.591L109.146 85.1932Z" fill="#FE5F55"/>
<path d="M172.793 54.9813L164.848 53.3888L162.862 63.2934L170.807 64.8859L172.793 54.9813Z" fill="#227DE4"/>
<path d="M216.993 117.09L229.304 118.885L230.757 108.917L218.446 107.123L216.993 117.09Z" fill="#E49922"/>
<path d="M174.193 93.7703L185.206 95.3754L186.557 86.1082L175.544 84.5032L174.193 93.7703Z" fill="#227DE4"/>
<path d="M101.829 66.3284L110.858 67.6444L112.701 55.0016L103.672 53.6857L101.829 66.3284Z" fill="#E49922"/>
<path d="M42.3007 33.3606L56.1789 35.3833L57.3893 27.079L43.511 25.0563L42.3007 33.3606Z" fill="#227DE4"/>
<path d="M194.945 44.5825L206.782 47.5177L203.38 61.2366L191.543 58.3014L194.945 44.5825Z" fill="#FE5F55"/>
<path d="M129.645 11.1184L136.919 12.9221L134.7 21.8701L127.427 20.0664L129.645 11.1184Z" fill="#227DE4"/>
<path d="M215.694 83.9463L225.241 91.4452L232.055 82.7702L222.509 75.2712L215.694 83.9463Z" fill="#E49922"/>
<path d="M173.707 58.0325L181.156 63.8835L187.043 56.3898L179.594 50.5388L173.707 58.0325Z" fill="#227DE4"/>
<path d="M99.2283 23.0027L107.74 29.689L115.301 20.0631L106.789 13.3768L99.2283 23.0027Z" fill="#E49922"/>
<path d="M199.624 -1.7837L206.642 5.18555L198.701 13.1814L191.683 6.21216L199.624 -1.7837Z" fill="#FE5F55"/>
<path d="M82.7007 38.9434L80.6981 49.1163L69.549 46.9215L71.5515 36.7487L82.7007 38.9434Z" fill="#E49922"/>
<path d="M125.071 9.66141L123.558 17.3492L114.179 15.5029L115.692 7.81506L125.071 9.66141Z" fill="#227DE4"/>
</g>
<defs>
<clipPath id="clip0">
<rect width="300" height="300" fill="white"/>
</clipPath>
</defs>
</svg>